<svg id="svg" version="1.1" xmlns="http://www.w3.org/2000/svg" xmlns:xlink="http://www.w3.org/1999/xlink" width="400" height="400" viewBox="0, 0, 400,400"><g id="svgg"><path id="path0" d="M138.800 131.508 C 138.800 132.368,143.266 137.129,155.765 149.598 C 164.034 157.847,170.800 164.774,170.800 164.992 C 170.800 165.210,156.040 180.153,138.000 198.198 C 119.757 216.446,105.200 231.314,105.200 231.700 C 105.200 232.590,169.402 296.800,170.292 296.800 C 170.658 296.800,185.678 282.085,203.671 264.100 C 221.663 246.115,236.656 231.400,236.988 231.400 C 237.320 231.400,244.209 237.980,252.296 246.022 C 265.350 259.003,269.395 262.800,270.173 262.800 C 270.919 262.800,270.385 133.670,269.635 132.744 L 268.871 131.800 203.835 131.600 C 168.066 131.490,138.800 131.449,138.800 131.508 " stroke="none" fill="#f2f2f3" fill-rule="evenodd"></path><path id="path1" d="M131.266 131.320 C 130.933 131.722,131.049 131.840,131.774 131.840 C 132.381 131.840,132.643 131.656,132.514 131.320 C 132.404 131.034,132.176 130.800,132.006 130.800 C 131.837 130.800,131.504 131.034,131.266 131.320 M110.400 134.176 C 110.400 134.493,110.608 134.881,110.862 135.038 C 111.162 135.224,111.214 135.147,111.011 134.817 C 110.828 134.522,110.928 134.165,111.249 133.961 C 111.685 133.685,111.654 133.611,111.100 133.606 C 110.715 133.603,110.400 133.859,110.400 134.176 M99.246 137.700 C 99.279 138.338,99.345 138.403,99.471 137.925 C 99.569 137.553,99.953 137.169,100.325 137.071 C 100.803 136.945,100.738 136.879,100.100 136.846 C 99.407 136.811,99.211 137.007,99.246 137.700 M83.600 144.024 C 83.600 144.477,83.780 144.736,84.000 144.600 C 84.220 144.464,84.400 144.093,84.400 143.776 C 84.400 143.459,84.220 143.200,84.000 143.200 C 83.780 143.200,83.600 143.571,83.600 144.024 M61.964 156.467 C 61.701 156.958,61.708 157.200,61.986 157.200 C 62.214 157.200,62.400 156.919,62.400 156.576 C 62.400 156.233,62.568 156.056,62.772 156.183 C 62.977 156.309,63.239 156.260,63.355 156.073 C 63.470 155.886,63.293 155.733,62.961 155.733 C 62.629 155.733,62.180 156.063,61.964 156.467 M54.000 163.133 C 54.000 163.390,53.865 163.579,53.700 163.553 C 52.947 163.434,52.533 163.644,52.533 164.145 C 52.533 164.868,53.873 164.509,54.182 163.703 C 54.312 163.364,54.325 162.991,54.209 162.876 C 54.094 162.761,54.000 162.877,54.000 163.133 M42.003 174.789 C 41.518 175.096,41.502 175.262,41.920 175.680 C 42.338 176.098,42.504 176.082,42.811 175.597 C 43.540 174.442,43.158 174.060,42.003 174.789 M36.916 181.200 C 36.801 181.640,36.548 182.000,36.353 182.000 C 36.159 182.000,36.000 182.202,36.000 182.449 C 36.000 182.759,36.185 182.744,36.600 182.400 C 36.930 182.126,37.200 181.667,37.200 181.380 C 37.200 181.093,37.515 180.776,37.900 180.676 C 38.536 180.510,38.532 180.489,37.863 180.446 C 37.437 180.420,37.037 180.738,36.916 181.200 M34.157 184.065 C 33.347 185.364,33.547 186.080,34.478 185.213 C 35.107 184.627,35.233 184.273,34.923 183.963 C 34.613 183.653,34.396 183.682,34.157 184.065 M30.900 189.465 C 30.625 189.576,30.414 189.967,30.432 190.333 C 30.451 190.749,30.539 190.812,30.665 190.500 C 30.776 190.225,31.122 190.000,31.433 190.000 C 31.745 190.000,32.000 189.820,32.000 189.600 C 32.000 189.174,31.709 189.139,30.900 189.465 M27.600 194.000 C 27.600 194.440,27.774 194.800,27.986 194.800 C 28.198 194.800,28.565 194.440,28.800 194.000 C 29.163 193.322,29.104 193.200,28.414 193.200 C 27.867 193.200,27.600 193.462,27.600 194.000 M22.812 202.600 C 22.812 203.505,23.392 203.920,23.896 203.377 C 24.208 203.040,24.245 202.752,23.996 202.598 C 23.778 202.463,23.597 202.588,23.594 202.876 C 23.589 203.257,23.482 203.236,23.200 202.800 C 22.987 202.470,22.812 202.380,22.812 202.600 M21.200 206.467 C 21.200 206.943,21.251 207.258,21.313 207.167 C 21.375 207.075,21.667 206.685,21.962 206.300 C 22.421 205.701,22.404 205.600,21.849 205.600 C 21.450 205.600,21.200 205.934,21.200 206.467 M18.483 212.270 C 18.061 212.440,18.061 212.594,18.483 213.116 C 18.874 213.598,18.878 213.680,18.500 213.453 C 18.178 213.260,18.000 213.396,18.000 213.838 C 18.000 214.481,18.048 214.480,18.773 213.824 C 19.330 213.320,19.580 211.743,19.057 212.032 C 19.026 212.049,18.767 212.156,18.483 212.270 M16.400 219.200 C 16.400 219.860,16.470 220.400,16.555 220.400 C 16.640 220.400,16.788 219.860,16.885 219.200 C 16.982 218.540,16.913 218.000,16.731 218.000 C 16.549 218.000,16.400 218.540,16.400 219.200 M14.854 224.853 C 14.817 225.571,14.513 225.994,13.900 226.180 C 13.294 226.365,13.176 226.525,13.539 226.673 C 14.351 227.004,15.294 225.834,15.089 224.751 C 14.916 223.837,14.907 223.841,14.854 224.853 M13.200 228.000 C 13.200 228.440,13.374 228.800,13.587 228.800 C 13.801 228.800,13.860 228.500,13.719 228.134 C 13.548 227.687,13.617 227.564,13.932 227.758 C 14.189 227.917,14.400 227.857,14.400 227.624 C 14.400 227.391,14.130 227.200,13.800 227.200 C 13.467 227.200,13.200 227.556,13.200 228.000 M12.811 232.100 C 12.490 232.595,12.207 233.090,12.180 233.200 C 12.153 233.310,11.996 233.704,11.832 234.076 C 11.668 234.447,11.701 235.052,11.907 235.419 C 12.255 236.041,12.298 236.042,12.536 235.423 C 12.686 235.033,12.628 234.859,12.395 235.003 C 12.178 235.137,12.000 234.956,12.000 234.600 C 12.000 234.244,12.180 234.064,12.400 234.200 C 12.620 234.336,12.814 234.302,12.831 234.124 C 12.889 233.508,13.124 232.597,13.404 231.900 C 13.795 230.928,13.505 231.025,12.811 232.100 M10.884 240.615 C 10.460 241.096,10.470 241.200,10.941 241.200 C 11.257 241.200,11.618 240.930,11.745 240.600 C 12.036 239.841,11.560 239.849,10.884 240.615 M10.540 242.187 C 10.664 242.510,10.593 242.881,10.383 243.011 C 10.172 243.141,10.000 243.517,10.000 243.847 C 10.000 244.177,10.192 244.329,10.427 244.184 C 10.661 244.039,10.760 243.826,10.646 243.712 C 10.531 243.598,10.700 243.243,11.019 242.924 C 11.783 242.160,11.757 241.600,10.957 241.600 C 10.556 241.600,10.399 241.821,10.540 242.187 M10.243 248.233 C 9.941 249.019,9.923 250.210,10.218 249.916 C 10.492 249.642,10.873 247.600,10.651 247.600 C 10.560 247.600,10.376 247.885,10.243 248.233 M9.798 257.206 C 9.657 257.649,9.375 257.908,9.171 257.782 C 8.593 257.425,8.716 262.950,9.300 263.579 C 9.700 264.010,9.700 264.061,9.300 263.835 C 8.505 263.386,8.689 265.327,9.508 266.029 C 10.180 266.604,10.216 266.375,10.217 261.517 C 10.218 256.107,10.201 255.936,9.798 257.206 M270.600 267.196 C 270.600 269.104,270.437 270.054,270.086 270.188 C 269.687 270.342,269.721 270.612,270.237 271.400 C 270.843 272.325,270.844 272.392,270.250 272.164 C 269.893 272.027,269.587 272.069,269.572 272.257 C 269.422 274.116,269.439 278.799,269.597 278.794 C 270.558 278.765,270.765 277.683,271.031 271.294 C 271.198 267.279,271.168 264.400,270.959 264.401 C 270.761 264.401,270.600 265.659,270.600 267.196 M10.267 273.067 C 9.856 273.477,9.951 275.200,10.384 275.200 C 10.657 275.200,10.839 272.807,10.567 272.801 C 10.548 272.800,10.413 272.920,10.267 273.067 M10.407 276.856 C 10.113 280.227,10.435 282.724,11.228 283.226 C 12.175 283.825,12.286 283.667,12.012 282.100 C 11.868 281.275,11.542 280.643,11.287 280.696 C 10.959 280.764,10.929 280.512,11.186 279.837 C 11.386 279.312,11.425 278.745,11.274 278.577 C 11.124 278.409,11.225 278.401,11.500 278.559 C 11.775 278.718,12.000 278.657,12.000 278.424 C 12.000 278.191,11.809 278.000,11.576 278.000 C 11.343 278.000,11.238 277.863,11.341 277.695 C 11.445 277.527,11.304 276.967,11.027 276.451 C 10.532 275.525,10.523 275.530,10.407 276.856 M269.036 282.148 C 269.151 282.450,268.966 282.804,268.623 282.936 C 268.280 283.067,268.003 283.406,268.006 283.687 C 268.010 284.046,268.129 284.020,268.400 283.600 C 268.731 283.087,268.789 283.102,268.794 283.700 C 268.797 284.085,268.605 284.400,268.367 284.400 C 268.128 284.400,268.008 284.623,268.099 284.896 C 268.190 285.169,268.056 285.601,267.801 285.856 C 267.535 286.122,267.389 287.174,267.459 288.321 C 267.549 289.799,267.427 290.381,266.991 290.548 C 266.666 290.673,266.400 290.971,266.400 291.211 C 266.400 291.451,266.625 291.533,266.900 291.394 C 267.175 291.255,267.084 291.399,266.699 291.715 C 265.967 292.315,265.447 294.800,266.052 294.800 C 266.244 294.800,266.400 294.991,266.400 295.224 C 266.400 295.457,266.232 295.544,266.028 295.417 C 265.823 295.291,265.525 295.398,265.366 295.655 C 265.185 295.948,265.250 296.016,265.539 295.837 C 266.458 295.270,265.752 297.198,264.601 298.399 C 263.459 299.591,262.795 301.634,263.828 300.777 C 264.205 300.464,264.312 300.705,264.281 301.792 C 264.251 302.846,264.149 303.051,263.885 302.580 C 263.566 302.010,263.472 302.020,262.977 302.672 C 262.563 303.218,262.422 303.256,262.413 302.824 C 262.404 302.410,262.239 302.467,261.833 303.022 C 261.484 303.499,261.405 303.965,261.627 304.232 C 261.858 304.511,261.780 304.667,261.411 304.667 C 261.094 304.667,260.905 304.553,260.991 304.414 C 261.077 304.275,260.982 303.900,260.780 303.581 C 260.475 303.099,260.411 303.118,260.406 303.697 C 260.402 304.203,260.152 304.349,259.500 304.227 C 259.005 304.135,257.925 304.046,257.100 304.030 C 255.877 304.005,255.600 303.852,255.600 303.200 C 255.600 302.533,255.333 302.400,254.000 302.400 C 252.667 302.400,252.400 302.533,252.400 303.200 C 252.400 303.944,252.133 304.000,248.623 304.000 L 244.846 304.000 244.693 305.700 L 244.540 307.400 244.470 305.700 L 244.400 304.000 242.200 304.000 C 240.267 304.000,240.000 304.097,240.000 304.800 C 240.000 305.333,239.733 305.600,239.200 305.600 C 238.667 305.600,238.400 305.333,238.400 304.800 C 238.400 304.227,238.133 304.000,237.462 304.000 C 236.946 304.000,236.198 304.360,235.800 304.800 C 234.543 306.189,233.600 305.846,233.600 304.000 L 233.600 302.400 231.428 302.400 C 229.493 302.400,229.237 302.498,229.082 303.300 L 228.909 304.200 228.854 303.300 C 228.741 301.431,226.000 302.806,226.000 304.731 C 226.000 305.333,225.754 305.600,225.200 305.600 C 224.667 305.600,224.400 305.333,224.400 304.800 C 224.400 304.133,224.133 304.000,222.800 304.000 C 221.467 304.000,221.200 303.867,221.200 303.200 C 221.200 302.124,220.095 302.172,218.892 303.300 L 217.932 304.200 217.202 303.300 C 216.660 302.632,216.049 302.400,214.836 302.400 L 213.200 302.400 213.200 304.000 C 213.200 305.121,213.029 305.600,212.628 305.600 C 212.313 305.600,211.978 306.005,211.882 306.500 C 211.787 306.995,211.684 306.275,211.654 304.900 C 211.594 302.134,210.863 301.583,209.400 303.200 C 209.002 303.640,208.344 304.000,207.938 304.000 C 207.467 304.000,207.200 304.289,207.200 304.800 C 207.200 305.333,206.933 305.600,206.400 305.600 C 205.867 305.600,205.600 305.333,205.600 304.800 C 205.600 304.067,205.333 304.000,202.400 304.000 C 200.533 304.000,199.200 303.833,199.200 303.600 C 199.200 303.380,198.480 303.200,197.600 303.200 C 196.720 303.200,196.000 303.020,196.000 302.800 C 196.000 302.104,194.554 302.367,193.800 303.200 C 193.315 303.736,192.568 304.000,191.538 304.000 C 190.267 304.000,190.000 304.139,190.000 304.800 C 190.000 305.333,189.733 305.600,189.200 305.600 C 188.667 305.600,188.400 305.333,188.400 304.800 C 188.400 304.133,188.133 304.000,186.800 304.000 C 185.467 304.000,185.200 304.133,185.200 304.800 C 185.200 305.333,184.933 305.600,184.400 305.600 C 183.733 305.600,183.600 305.333,183.600 304.000 C 183.600 302.718,183.455 302.400,182.870 302.400 C 181.972 302.400,180.400 304.008,180.400 304.926 C 180.400 305.297,180.143 305.600,179.828 305.600 C 179.513 305.600,179.178 306.005,179.082 306.500 L 178.909 307.400 178.854 306.500 C 178.817 305.885,178.547 305.600,178.000 305.600 C 177.560 305.600,177.200 305.464,177.200 305.297 C 177.200 304.966,174.376 304.000,173.406 304.000 C 173.067 304.000,172.800 304.352,172.800 304.800 C 172.800 305.333,172.533 305.600,172.000 305.600 C 171.492 305.600,171.200 305.333,171.200 304.870 C 171.200 303.972,169.592 302.400,168.674 302.400 C 168.267 302.400,168.000 302.716,168.000 303.200 C 168.000 303.733,167.733 304.000,167.200 304.000 C 166.667 304.000,166.400 304.267,166.400 304.800 C 166.400 305.333,166.133 305.600,165.600 305.600 C 165.067 305.600,164.800 305.333,164.800 304.800 C 164.800 304.267,164.533 304.000,164.000 304.000 C 163.467 304.000,163.200 303.733,163.200 303.200 C 163.200 302.552,162.933 302.400,161.800 302.400 L 160.400 302.400 160.346 304.900 C 160.316 306.275,160.213 306.995,160.118 306.500 C 159.963 305.698,159.707 305.600,157.772 305.600 L 155.600 305.600 155.600 304.000 C 155.600 302.154,154.657 301.811,153.400 303.200 C 152.754 303.914,152.168 304.000,147.966 304.000 C 143.399 304.000,143.250 304.027,143.082 304.900 C 142.925 305.717,142.904 305.704,142.854 304.762 C 142.765 303.061,141.513 302.191,140.603 303.197 C 139.649 304.251,138.400 304.253,138.400 303.200 C 138.400 302.692,138.133 302.400,137.670 302.400 C 136.772 302.400,135.200 304.008,135.200 304.926 C 135.200 305.333,134.884 305.600,134.400 305.600 C 133.733 305.600,133.600 305.333,133.600 304.000 L 133.600 302.400 130.600 302.400 L 127.600 302.400 127.600 304.000 C 127.600 305.333,127.467 305.600,126.800 305.600 C 126.267 305.600,126.000 305.867,126.000 306.400 C 126.000 306.933,125.733 307.200,125.200 307.200 C 124.667 307.200,124.400 306.933,124.400 306.400 C 124.400 305.956,124.667 305.600,125.000 305.600 C 125.433 305.600,125.600 305.156,125.600 304.000 L 125.600 302.400 122.662 302.400 C 120.232 302.400,119.599 302.538,119.000 303.200 C 118.254 304.025,116.400 304.310,116.400 303.600 C 116.400 303.380,115.680 303.200,114.800 303.200 C 113.920 303.200,113.200 303.380,113.200 303.600 C 113.200 303.820,112.583 304.000,111.828 304.000 C 110.723 304.000,110.422 304.175,110.282 304.900 L 110.109 305.800 110.054 304.900 C 110.017 304.285,109.747 304.000,109.200 304.000 C 108.667 304.000,108.400 303.733,108.400 303.200 C 108.400 302.471,108.133 302.400,105.400 302.400 C 102.667 302.400,102.400 302.471,102.400 303.200 C 102.400 303.733,102.133 304.000,101.600 304.000 C 101.067 304.000,100.800 304.267,100.800 304.800 C 100.800 305.467,100.533 305.600,99.200 305.600 C 97.867 305.600,97.600 305.467,97.600 304.800 C 97.600 303.513,93.331 303.607,93.082 304.900 L 92.909 305.800 92.854 304.900 C 92.803 304.048,92.633 304.000,89.662 304.000 C 87.032 304.000,86.407 303.870,85.800 303.200 C 85.325 302.675,84.568 302.400,83.600 302.400 C 82.632 302.400,81.875 302.675,81.400 303.200 C 80.920 303.731,80.168 304.000,79.166 304.000 C 77.918 304.000,77.626 304.156,77.482 304.900 L 77.309 305.800 77.254 304.900 C 77.208 304.132,76.974 304.000,75.662 304.000 C 74.632 304.000,73.885 303.736,73.400 303.200 C 72.143 301.811,71.200 302.154,71.200 304.000 C 71.200 305.333,71.067 305.600,70.400 305.600 C 69.892 305.600,69.600 305.333,69.600 304.870 C 69.600 303.652,67.914 302.400,66.274 302.400 C 65.067 302.400,64.800 302.545,64.800 303.200 C 64.800 303.928,64.533 304.000,61.828 304.000 C 59.064 304.000,58.844 304.063,58.682 304.900 C 58.525 305.717,58.504 305.704,58.454 304.762 C 58.341 302.591,57.012 302.170,56.266 304.068 L 55.607 305.746 54.678 304.873 C 53.301 303.580,43.200 303.516,43.200 304.800 C 43.200 305.511,42.933 305.600,40.800 305.600 L 38.400 305.600 38.400 304.000 L 38.400 302.400 36.800 302.400 C 35.467 302.400,35.200 302.533,35.200 303.200 C 35.200 303.764,34.933 304.000,34.296 304.000 C 33.799 304.000,33.168 304.360,32.893 304.800 C 31.933 306.337,30.400 305.846,30.400 304.000 C 30.400 302.711,30.256 302.400,29.662 302.400 C 28.694 302.400,27.600 303.637,27.600 304.731 C 27.600 305.323,27.354 305.600,26.828 305.600 C 26.345 305.600,25.991 305.937,25.882 306.500 C 25.787 306.995,25.684 306.635,25.654 305.700 C 25.577 303.281,22.800 302.977,22.800 305.387 C 22.800 306.517,22.676 306.727,22.134 306.519 C 21.639 306.329,21.553 306.409,21.799 306.832 C 21.980 307.145,21.975 307.260,21.786 307.088 C 21.457 306.789,21.202 305.962,21.110 304.900 C 21.086 304.625,20.816 304.400,20.510 304.400 C 20.203 304.400,20.054 304.236,20.178 304.036 C 20.510 303.498,19.992 302.400,19.406 302.400 C 19.127 302.400,18.676 302.132,18.404 301.804 C 18.132 301.477,17.732 301.319,17.515 301.453 C 17.298 301.587,17.336 301.293,17.600 300.800 C 17.918 300.207,17.931 299.995,17.640 300.175 C 17.247 300.418,17.023 299.924,17.153 299.100 C 17.179 298.935,17.030 298.800,16.823 298.800 C 16.616 298.800,16.518 298.423,16.607 297.963 C 16.722 297.365,16.605 297.189,16.195 297.347 C 15.417 297.645,14.215 295.962,14.903 295.536 C 15.282 295.302,15.268 295.117,14.838 294.717 C 14.381 294.291,14.339 294.299,14.603 294.762 C 14.818 295.139,14.771 295.230,14.461 295.038 C 14.139 294.838,14.119 294.525,14.396 294.008 C 14.639 293.553,14.648 293.213,14.418 293.132 C 14.211 293.060,13.938 292.401,13.810 291.670 C 13.634 290.660,13.701 290.409,14.089 290.628 C 14.499 290.860,14.501 290.811,14.100 290.379 C 13.825 290.082,13.600 289.246,13.600 288.520 C 13.600 287.702,13.417 287.238,13.118 287.300 C 12.670 287.393,12.594 287.235,12.444 285.900 C 12.404 285.543,12.283 285.566,12.022 285.978 C 11.798 286.332,11.806 286.838,12.042 287.278 C 12.299 287.758,12.289 288.000,12.014 288.000 C 11.786 288.000,11.600 288.270,11.600 288.600 C 11.600 288.930,11.763 289.200,11.963 289.200 C 12.162 289.200,12.232 289.558,12.117 289.995 C 11.985 290.499,12.145 290.881,12.555 291.038 C 12.943 291.187,13.200 291.747,13.200 292.443 C 13.200 293.099,13.417 293.603,13.700 293.606 C 14.010 293.610,14.048 293.724,13.800 293.906 C 13.173 294.367,13.124 295.225,13.686 295.919 C 14.109 296.442,14.105 296.496,13.660 296.229 C 13.223 295.965,13.206 296.065,13.574 296.752 C 13.824 297.218,14.202 297.600,14.414 297.600 C 14.626 297.600,14.800 298.320,14.800 299.200 C 14.800 300.267,15.067 301.067,15.600 301.600 C 16.133 302.133,16.400 302.933,16.400 304.000 C 16.400 305.067,16.667 305.867,17.200 306.400 C 17.640 306.840,18.000 307.352,18.000 307.539 C 18.000 307.725,18.405 308.086,18.900 308.341 C 19.764 308.786,19.766 308.796,18.939 308.587 C 17.850 308.314,17.840 310.601,18.926 311.396 C 19.317 311.682,19.600 312.431,19.600 313.182 C 19.600 314.138,19.808 314.529,20.400 314.684 C 21.006 314.843,21.200 315.230,21.200 316.284 C 21.200 317.338,21.394 317.725,22.000 317.884 C 22.724 318.073,23.008 318.883,22.837 320.270 C 22.805 320.528,23.144 320.855,23.589 320.997 C 24.337 321.234,24.620 322.106,24.417 323.555 C 24.365 323.928,24.607 324.039,25.158 323.895 C 25.749 323.741,25.962 323.865,25.925 324.341 C 25.775 326.263,26.030 327.200,26.704 327.200 C 27.213 327.200,27.422 327.541,27.459 328.430 C 27.490 329.188,27.834 329.888,28.355 330.253 C 28.820 330.579,29.200 331.105,29.200 331.423 C 29.200 331.740,29.470 332.000,29.800 332.000 C 30.133 332.000,30.400 332.356,30.400 332.800 C 30.400 333.333,30.667 333.600,31.200 333.600 C 31.717 333.600,32.018 333.883,32.050 334.400 C 32.144 335.909,32.201 336.065,32.825 336.532 C 33.168 336.790,33.568 337.315,33.712 337.700 C 33.857 338.085,34.251 338.400,34.587 338.400 C 35.006 338.400,35.200 338.793,35.200 339.637 C 35.200 340.538,35.417 340.932,36.000 341.084 C 36.443 341.200,36.800 341.630,36.800 342.047 C 36.800 342.533,37.083 342.800,37.600 342.800 C 38.133 342.800,38.400 343.067,38.400 343.600 C 38.400 344.133,38.667 344.400,39.200 344.400 C 39.733 344.400,40.000 344.667,40.000 345.200 C 40.000 345.733,40.267 346.000,40.800 346.000 C 41.333 346.000,41.600 346.267,41.600 346.800 C 41.600 347.325,41.867 347.600,42.377 347.600 C 42.900 347.600,43.112 347.829,43.025 348.300 C 42.829 349.362,43.497 350.800,44.187 350.800 C 44.524 350.800,44.800 351.076,44.800 351.413 C 44.800 351.749,45.070 352.129,45.400 352.255 C 45.730 352.382,46.000 352.741,46.000 353.053 C 46.000 353.365,46.461 353.795,47.024 354.009 C 47.587 354.223,47.940 354.574,47.808 354.788 C 47.675 355.001,48.013 355.288,48.557 355.425 C 49.192 355.584,49.469 355.875,49.331 356.237 C 49.189 356.605,49.390 356.800,49.911 356.800 C 50.370 356.800,50.795 357.138,50.916 357.600 C 51.076 358.213,51.462 358.400,52.563 358.400 C 53.733 358.400,54.000 358.548,54.000 359.200 C 54.000 359.733,54.267 360.000,54.800 360.000 C 55.333 360.000,55.600 360.267,55.600 360.800 C 55.600 361.333,55.867 361.600,56.400 361.600 C 56.933 361.600,57.200 361.867,57.200 362.400 C 57.200 362.933,57.467 363.200,58.000 363.200 C 58.533 363.200,58.800 363.467,58.800 364.000 C 58.800 364.533,59.067 364.800,59.600 364.800 C 60.133 364.800,60.400 365.067,60.400 365.600 C 60.400 366.248,60.667 366.400,61.800 366.400 C 62.933 366.400,63.200 366.552,63.200 367.200 C 63.200 367.717,63.467 368.000,63.953 368.000 C 64.370 368.000,64.800 368.357,64.916 368.800 C 65.076 369.413,65.462 369.600,66.563 369.600 C 67.733 369.600,68.000 369.748,68.000 370.400 C 68.000 370.933,68.267 371.200,68.800 371.200 C 69.240 371.200,69.607 371.425,69.615 371.700 C 69.632 372.289,72.832 374.400,73.709 374.400 C 74.042 374.400,74.418 374.670,74.545 375.000 C 74.678 375.347,75.276 375.600,75.960 375.600 C 76.795 375.600,77.221 375.837,77.400 376.400 C 77.587 376.988,78.005 377.200,78.980 377.200 C 79.970 377.200,80.360 377.403,80.516 378.000 C 80.676 378.613,81.062 378.800,82.163 378.800 C 83.333 378.800,83.600 378.948,83.600 379.600 C 83.600 380.267,83.867 380.400,85.200 380.400 C 86.533 380.400,86.800 380.533,86.800 381.200 C 86.800 381.867,87.067 382.000,88.400 382.000 C 89.501 382.000,90.000 382.174,90.000 382.557 C 90.000 383.291,90.884 383.600,92.986 383.600 C 94.354 383.600,94.748 383.759,94.910 384.378 C 95.072 384.998,95.529 385.180,97.162 385.278 C 98.289 385.345,99.193 385.560,99.171 385.755 C 99.099 386.405,100.178 386.788,102.100 386.794 C 103.454 386.798,104.000 386.960,104.000 387.357 C 104.000 388.153,104.908 388.400,107.833 388.400 C 109.734 388.400,110.400 388.541,110.400 388.946 C 110.400 389.537,112.822 390.000,115.912 390.000 C 117.161 390.000,117.868 390.213,118.221 390.697 C 118.667 391.307,119.667 391.411,126.265 391.536 C 132.194 391.649,133.868 391.799,134.120 392.240 C 134.587 393.059,148.210 393.062,148.680 392.243 C 148.926 391.815,150.500 391.648,155.486 391.518 C 160.600 391.385,162.123 391.218,162.686 390.728 C 163.148 390.326,164.600 390.019,166.800 389.859 C 169.148 389.688,170.337 389.424,170.644 389.005 C 170.927 388.620,171.744 388.400,172.894 388.400 C 175.493 388.400,177.200 387.984,177.200 387.350 C 177.200 386.965,177.739 386.800,179.000 386.800 C 180.267 386.800,181.037 386.563,181.600 386.000 C 182.134 385.466,182.933 385.200,184.004 385.200 C 185.113 385.200,185.819 384.953,186.293 384.400 C 186.804 383.803,187.473 383.600,188.926 383.600 C 190.538 383.600,190.911 383.462,191.084 382.800 C 191.243 382.194,191.630 382.000,192.684 382.000 C 193.738 382.000,194.125 381.806,194.284 381.200 C 194.443 380.594,194.830 380.400,195.884 380.400 C 196.938 380.400,197.325 380.206,197.484 379.600 C 197.640 379.003,198.030 378.800,199.020 378.800 C 199.995 378.800,200.413 378.588,200.600 378.000 C 200.787 377.412,201.205 377.200,202.180 377.200 C 203.170 377.200,203.560 376.997,203.716 376.400 C 203.876 375.787,204.262 375.600,205.363 375.600 C 206.526 375.600,206.800 375.450,206.800 374.813 C 206.800 374.264,206.989 374.098,207.424 374.265 C 207.836 374.422,208.120 374.227,208.261 373.690 C 208.403 373.145,208.932 372.789,209.858 372.616 C 210.619 372.473,211.335 372.114,211.449 371.817 C 211.562 371.521,212.003 371.188,212.428 371.077 C 212.852 370.966,213.200 370.588,213.200 370.237 C 213.200 369.824,213.552 369.600,214.200 369.600 C 214.750 369.600,215.529 369.271,215.931 368.869 C 216.332 368.468,216.962 368.023,217.331 367.882 C 217.699 367.741,218.000 367.349,218.000 367.013 C 218.000 366.594,218.393 366.400,219.237 366.400 C 220.119 366.400,220.532 366.180,220.674 365.637 C 220.784 365.217,221.217 364.784,221.637 364.674 C 222.057 364.565,222.400 364.188,222.400 363.837 C 222.400 363.467,222.735 363.200,223.200 363.200 C 223.665 363.200,224.000 362.933,224.000 362.563 C 224.000 362.212,224.360 361.831,224.800 361.716 C 225.243 361.600,225.600 361.170,225.600 360.753 C 225.600 360.267,225.883 360.000,226.400 360.000 C 226.933 360.000,227.200 359.733,227.200 359.200 C 227.200 358.581,227.467 358.400,228.377 358.400 C 229.056 358.400,229.776 358.093,230.077 357.674 C 230.365 357.274,230.915 356.830,231.300 356.686 C 231.685 356.543,232.000 356.170,232.000 355.859 C 232.000 355.548,232.360 355.199,232.800 355.084 C 233.240 354.969,233.600 354.588,233.600 354.237 C 233.600 353.887,233.870 353.600,234.200 353.600 C 234.530 353.600,234.800 353.427,234.800 353.215 C 234.800 353.004,235.511 352.127,236.379 351.267 C 237.248 350.407,238.078 349.230,238.223 348.652 C 238.368 348.073,238.725 347.600,239.016 347.600 C 239.308 347.600,239.660 347.240,239.800 346.800 C 239.940 346.360,240.312 346.000,240.627 346.000 C 240.942 346.000,241.200 345.736,241.200 345.414 C 241.200 345.092,241.560 344.635,242.000 344.400 C 242.440 344.165,242.800 343.708,242.800 343.386 C 242.800 343.064,243.076 342.800,243.413 342.800 C 243.749 342.800,244.143 342.485,244.286 342.100 C 244.430 341.715,244.874 341.165,245.274 340.877 C 245.693 340.576,246.000 339.856,246.000 339.177 C 246.000 338.367,246.199 338.000,246.637 338.000 C 246.988 338.000,247.369 337.640,247.484 337.200 C 247.599 336.760,247.963 336.400,248.293 336.400 C 248.697 336.400,248.825 336.137,248.684 335.599 C 248.569 335.159,248.638 334.900,248.837 335.023 C 249.037 335.146,249.200 334.877,249.200 334.424 C 249.200 333.952,249.461 333.600,249.810 333.600 C 250.145 333.600,250.584 333.169,250.784 332.642 C 250.984 332.115,251.348 331.617,251.591 331.536 C 251.835 331.455,252.090 330.872,252.157 330.241 C 252.234 329.518,252.635 328.902,253.240 328.579 C 253.768 328.296,254.155 327.960,254.100 327.832 C 253.774 327.075,254.076 325.600,254.557 325.600 C 255.152 325.600,255.600 324.765,255.600 323.656 C 255.600 323.283,255.915 322.674,256.300 322.303 C 258.055 320.611,258.400 320.053,258.400 318.913 C 258.400 318.030,258.621 317.636,259.200 317.484 C 259.780 317.332,260.000 316.938,260.000 316.052 C 260.000 315.238,260.268 314.685,260.800 314.400 C 261.427 314.065,261.600 313.562,261.600 312.082 C 261.600 310.626,261.783 310.078,262.400 309.693 C 263.744 308.853,263.453 307.512,261.977 307.745 C 260.972 307.903,260.835 307.839,261.211 307.386 C 261.463 307.083,261.532 306.602,261.366 306.318 C 261.199 306.033,261.423 306.115,261.863 306.500 C 262.921 307.426,263.200 307.383,263.200 306.296 C 263.200 305.799,263.560 305.168,264.000 304.893 C 264.626 304.502,264.800 303.960,264.800 302.397 C 264.800 300.963,264.956 300.400,265.353 300.400 C 265.981 300.400,266.387 299.201,266.395 297.320 C 266.398 296.558,266.663 295.892,267.050 295.676 C 267.518 295.414,267.654 294.912,267.534 293.884 C 267.442 293.099,267.510 292.544,267.684 292.652 C 267.858 292.759,268.000 291.821,268.000 290.568 C 268.000 289.086,268.197 288.133,268.563 287.844 C 269.347 287.225,269.892 284.575,269.143 285.027 C 268.724 285.279,268.698 285.222,269.029 284.777 C 269.586 284.029,269.731 281.600,269.219 281.600 C 269.002 281.600,268.920 281.847,269.036 282.148 M15.378 296.035 C 14.882 296.838,15.842 297.275,16.437 296.517 C 16.961 295.850,16.946 295.842,16.225 296.400 C 15.521 296.945,15.474 296.936,15.713 296.300 C 16.004 295.523,15.796 295.358,15.378 296.035 M36.800 306.400 C 36.800 306.933,36.533 307.200,36.000 307.200 C 35.467 307.200,35.200 306.933,35.200 306.400 C 35.200 305.867,35.467 305.600,36.000 305.600 C 36.533 305.600,36.800 305.867,36.800 306.400 " stroke="none" fill="#04bc7f" fill-rule="evenodd"></path><path id="path2" d="M251.470 2.746 C 251.069 2.903,250.799 3.204,250.870 3.416 C 250.945 3.638,249.424 3.849,247.258 3.916 C 243.931 4.018,243.494 4.118,243.312 4.816 C 243.128 5.520,242.747 5.600,239.602 5.600 C 236.290 5.600,234.661 6.127,235.470 6.937 C 235.615 7.082,234.503 7.200,233.000 7.200 C 231.497 7.200,230.385 7.318,230.530 7.463 C 231.155 8.089,229.783 8.800,227.951 8.800 C 226.483 8.800,226.000 8.949,226.000 9.400 C 226.000 9.730,225.775 10.013,225.500 10.029 C 223.317 10.153,221.737 10.511,221.396 10.959 C 221.054 11.409,219.931 11.713,217.300 12.066 C 217.025 12.103,216.800 12.373,216.800 12.667 C 216.800 12.969,216.367 13.200,215.800 13.200 C 214.360 13.200,214.252 13.225,213.704 13.679 C 213.432 13.906,213.294 14.228,213.397 14.395 C 213.501 14.563,212.869 14.815,211.993 14.955 C 210.963 15.119,210.400 15.420,210.400 15.805 C 210.400 16.173,210.019 16.400,209.400 16.400 C 208.850 16.400,208.040 16.760,207.600 17.200 C 207.160 17.640,206.352 18.000,205.803 18.000 C 205.240 18.000,204.590 18.348,204.307 18.800 C 204.032 19.240,203.491 19.600,203.104 19.600 C 202.667 19.600,202.400 19.903,202.400 20.400 C 202.400 21.045,202.133 21.200,201.027 21.200 C 200.031 21.200,199.588 21.408,199.414 21.957 C 199.282 22.373,198.819 22.806,198.387 22.919 C 197.954 23.033,197.600 23.412,197.600 23.763 C 197.600 24.206,197.230 24.400,196.387 24.400 C 195.503 24.400,195.076 24.644,194.812 25.300 C 194.613 25.795,194.439 26.059,194.425 25.886 C 194.411 25.713,194.035 25.767,193.589 26.006 C 193.143 26.245,192.872 26.592,192.986 26.778 C 193.228 27.168,192.279 27.600,191.181 27.600 C 190.767 27.600,190.239 27.953,190.008 28.385 C 189.761 28.847,189.343 29.076,188.994 28.942 C 188.591 28.788,188.400 28.971,188.400 29.511 C 188.400 29.970,188.062 30.395,187.600 30.516 C 187.160 30.631,186.800 30.999,186.800 31.335 C 186.800 31.670,186.395 32.006,185.900 32.082 C 185.381 32.161,185.052 32.455,185.123 32.777 C 185.226 33.249,185.137 33.248,184.546 32.768 C 184.161 32.455,183.969 32.405,184.119 32.655 C 184.269 32.905,184.123 33.332,183.796 33.604 C 183.468 33.876,183.200 34.000,183.200 33.880 C 183.200 33.760,182.660 34.202,182.000 34.862 C 181.340 35.522,180.800 36.207,180.800 36.384 C 180.800 36.562,180.440 36.801,180.000 36.916 C 179.560 37.031,179.200 37.392,179.200 37.719 C 179.200 38.046,178.756 38.425,178.214 38.561 C 177.553 38.727,177.304 39.004,177.457 39.404 C 177.604 39.788,177.444 40.000,177.005 40.000 C 176.631 40.000,176.231 40.360,176.116 40.800 C 176.000 41.243,175.570 41.600,175.153 41.600 C 174.667 41.600,174.400 41.883,174.400 42.400 C 174.400 42.865,174.133 43.200,173.763 43.200 C 173.412 43.200,173.031 43.560,172.916 44.000 C 172.800 44.443,172.370 44.800,171.953 44.800 C 171.475 44.800,171.200 45.083,171.200 45.573 C 171.200 45.998,170.837 46.461,170.394 46.602 C 169.951 46.743,169.684 47.012,169.801 47.201 C 169.917 47.390,169.827 47.660,169.600 47.800 C 169.373 47.940,169.314 48.268,169.470 48.528 C 169.626 48.787,169.414 48.730,169.000 48.400 C 168.561 48.050,168.372 48.009,168.547 48.300 C 168.712 48.575,168.657 48.800,168.424 48.800 C 168.191 48.800,168.000 49.250,168.000 49.800 C 168.000 50.448,167.776 50.800,167.363 50.800 C 167.012 50.800,166.631 51.160,166.516 51.600 C 166.325 52.329,165.913 52.576,165.100 52.447 C 164.935 52.421,164.800 52.741,164.800 53.157 C 164.800 53.574,164.553 54.009,164.251 54.125 C 163.948 54.241,163.580 54.981,163.432 55.768 C 163.270 56.631,162.933 57.200,162.582 57.200 C 162.262 57.200,162.000 57.367,162.000 57.571 C 162.000 57.776,161.685 58.257,161.300 58.641 C 160.915 59.026,160.420 59.866,160.200 60.509 C 159.980 61.152,159.620 61.650,159.400 61.615 C 159.180 61.581,158.902 61.968,158.782 62.476 C 158.662 62.984,158.310 63.400,158.000 63.400 C 157.690 63.400,157.330 63.850,157.200 64.400 C 157.070 64.950,156.717 65.400,156.416 65.400 C 156.112 65.400,155.797 65.921,155.711 66.565 C 155.625 67.206,155.205 68.176,154.778 68.719 C 154.350 69.263,154.000 70.144,154.000 70.678 C 154.000 71.211,153.839 71.548,153.642 71.426 C 153.151 71.123,152.542 72.473,152.450 74.067 C 152.422 74.543,152.283 74.816,152.140 74.673 C 151.709 74.242,150.826 75.723,150.813 76.900 C 150.806 77.505,150.590 78.000,150.333 78.000 C 150.077 78.000,149.984 78.117,150.127 78.260 C 150.270 78.404,150.121 78.719,149.795 78.960 C 149.469 79.202,149.161 79.906,149.112 80.525 C 149.062 81.144,148.747 81.864,148.411 82.125 C 147.865 82.549,147.864 82.515,148.400 81.800 C 148.939 81.082,148.937 81.049,148.379 81.483 C 148.030 81.755,147.715 82.706,147.659 83.654 C 147.601 84.633,147.294 85.536,146.927 85.804 C 146.552 86.078,146.215 87.099,146.098 88.316 C 145.985 89.495,145.715 90.332,145.463 90.284 C 145.222 90.238,144.853 91.190,144.643 92.400 C 144.433 93.610,144.017 94.782,143.718 95.003 C 143.243 95.357,143.110 96.022,142.854 99.300 C 142.825 99.685,142.575 99.955,142.300 99.900 C 141.936 99.827,141.770 100.779,141.689 103.400 C 141.607 106.087,141.421 107.118,140.959 107.466 C 140.156 108.071,140.067 108.626,140.031 113.300 C 140.014 115.445,139.865 117.179,139.700 117.153 C 138.670 116.990,138.319 117.221,138.770 117.764 C 139.108 118.172,139.116 118.405,138.798 118.601 C 138.237 118.948,138.332 130.382,138.901 131.100 C 139.216 131.496,152.676 131.600,203.795 131.600 C 267.284 131.600,268.308 131.612,269.290 132.385 C 270.432 133.283,270.726 138.053,270.857 157.800 C 270.943 170.778,271.105 172.800,272.058 172.800 C 272.533 172.800,272.800 173.088,272.800 173.600 C 272.800 174.622,274.039 174.662,274.938 173.669 C 275.302 173.266,275.600 172.546,275.600 172.069 C 275.600 171.219,275.719 171.200,281.200 171.200 L 286.800 171.200 286.800 169.600 C 286.800 168.267,286.933 168.000,287.600 168.000 C 288.296 168.000,288.400 168.267,288.400 170.045 L 288.400 172.091 289.700 171.820 C 290.415 171.670,291.755 171.453,292.677 171.336 C 293.987 171.170,294.391 170.934,294.523 170.262 C 294.688 169.415,294.692 169.416,294.746 170.300 C 294.825 171.614,300.800 171.713,300.800 170.400 C 300.800 169.733,301.067 169.600,302.400 169.600 C 303.733 169.600,304.000 169.733,304.000 170.400 C 304.000 171.154,304.267 171.200,308.600 171.200 C 312.933 171.200,313.200 171.154,313.200 170.400 C 313.200 169.867,313.467 169.600,314.000 169.600 C 314.440 169.600,314.800 169.780,314.800 170.000 C 314.800 170.220,315.520 170.400,316.400 170.400 C 317.280 170.400,318.000 170.580,318.000 170.800 C 318.000 171.020,318.720 171.200,319.600 171.200 C 320.933 171.200,321.200 171.067,321.200 170.400 C 321.200 169.867,321.467 169.600,322.000 169.600 C 322.533 169.600,322.800 169.867,322.800 170.400 C 322.800 170.933,323.067 171.200,323.600 171.200 C 324.133 171.200,324.400 171.467,324.400 172.000 C 324.400 172.648,324.667 172.800,325.800 172.800 L 327.200 172.800 327.254 170.300 C 327.284 168.925,327.387 168.205,327.482 168.700 C 327.637 169.502,327.893 169.600,329.828 169.600 C 331.733 169.600,332.000 169.698,332.000 170.400 C 332.000 171.147,332.267 171.200,336.000 171.200 C 339.733 171.200,340.000 171.147,340.000 170.400 C 340.000 169.755,340.267 169.600,341.372 169.600 C 342.477 169.600,342.778 169.425,342.918 168.700 C 343.013 168.205,343.116 168.565,343.146 169.500 L 343.200 171.200 345.400 171.200 C 347.333 171.200,347.600 171.297,347.600 172.000 C 347.600 172.667,347.867 172.800,349.200 172.800 C 350.533 172.800,350.800 172.667,350.800 172.000 C 350.800 170.796,357.332 170.782,358.083 171.984 C 358.723 173.009,359.971 172.031,360.054 170.438 C 360.104 169.496,360.125 169.483,360.282 170.300 C 360.524 171.554,363.200 171.646,363.200 170.400 C 363.200 169.721,363.467 169.600,364.957 169.600 C 366.818 169.600,367.200 169.980,367.200 171.833 C 367.200 172.533,367.421 172.800,368.000 172.800 C 368.615 172.800,368.800 172.533,368.800 171.649 C 368.800 169.995,369.681 169.385,370.601 170.401 C 371.152 171.010,371.833 171.200,373.462 171.200 L 375.600 171.200 375.654 169.500 C 375.684 168.565,375.787 168.205,375.882 168.700 C 375.991 169.263,376.345 169.600,376.828 169.600 C 377.462 169.600,377.600 169.886,377.600 171.200 C 377.600 173.241,379.445 173.686,379.673 171.700 C 379.803 170.570,382.000 169.731,382.000 170.812 C 382.000 171.148,383.438 171.238,387.200 171.138 C 392.455 170.999,393.606 171.326,391.611 172.394 C 390.854 172.799,390.849 172.875,391.485 174.208 C 392.248 175.809,392.602 175.964,392.695 174.736 C 392.731 174.261,392.982 173.735,393.254 173.566 C 393.645 173.325,393.643 173.133,393.241 172.650 C 392.643 171.929,393.017 170.400,393.792 170.400 C 394.120 170.400,394.289 170.031,394.226 169.455 C 394.154 168.798,394.317 168.523,394.761 168.555 C 395.137 168.581,395.377 168.314,395.345 167.904 C 395.315 167.522,395.455 167.311,395.657 167.435 C 395.863 167.562,395.975 166.946,395.912 166.032 C 395.818 164.657,395.200 163.589,395.200 164.800 C 395.200 165.020,395.008 165.200,394.773 165.200 C 394.538 165.200,394.964 164.435,395.719 163.500 C 396.474 162.565,397.086 161.461,397.079 161.047 C 397.068 160.365,397.022 160.356,396.589 160.947 C 395.994 161.761,395.750 161.768,395.447 160.979 C 395.311 160.623,395.378 160.463,395.605 160.603 C 395.824 160.738,396.000 160.411,396.000 159.866 C 396.000 159.327,396.258 158.787,396.573 158.666 C 396.975 158.512,397.100 158.681,396.993 159.234 C 396.910 159.667,397.007 159.919,397.208 159.795 C 397.410 159.670,397.545 158.614,397.508 157.448 C 397.456 155.809,397.638 155.078,398.312 154.222 C 398.984 153.366,399.090 152.942,398.777 152.357 C 398.505 151.849,398.505 151.600,398.775 151.600 C 399.031 151.600,399.171 149.156,399.158 144.910 C 399.144 140.464,399.282 138.173,399.569 138.077 C 400.109 137.897,400.163 129.325,399.625 129.133 C 399.413 129.058,399.195 125.347,399.125 120.600 C 399.011 112.964,398.938 112.205,398.316 112.253 C 397.939 112.282,397.646 112.192,397.663 112.053 C 397.988 109.460,397.496 105.096,396.800 104.400 C 396.152 103.752,396.000 103.067,396.000 100.800 C 396.000 98.267,395.924 98.000,395.200 98.000 C 394.491 98.000,394.400 97.733,394.400 95.647 C 394.400 93.630,394.286 93.263,393.600 93.084 C 392.933 92.910,392.800 92.538,392.800 90.857 C 392.800 89.589,392.600 88.721,392.260 88.520 C 391.964 88.344,391.603 87.320,391.460 86.244 C 391.317 85.168,390.946 84.088,390.635 83.844 C 390.324 83.600,389.964 82.597,389.835 81.616 C 389.706 80.635,389.350 79.692,389.045 79.521 C 388.562 79.251,387.974 77.855,387.814 76.600 C 387.786 76.380,387.547 76.245,387.282 76.300 C 387.008 76.357,386.800 75.969,386.800 75.400 C 386.800 74.667,386.587 74.400,386.000 74.400 C 385.333 74.400,385.200 74.133,385.200 72.800 C 385.200 71.467,385.067 71.200,384.400 71.200 C 383.748 71.200,383.600 70.933,383.600 69.763 C 383.600 68.662,383.413 68.276,382.800 68.116 C 382.203 67.960,382.000 67.570,382.000 66.580 C 382.000 65.605,381.788 65.187,381.200 65.000 C 380.645 64.824,380.400 64.395,380.400 63.600 C 380.400 62.805,380.155 62.376,379.600 62.200 C 379.160 62.060,378.800 61.598,378.800 61.173 C 378.800 60.481,378.378 60.214,377.500 60.353 C 377.335 60.379,377.200 59.830,377.200 59.133 C 377.200 58.437,377.089 57.978,376.952 58.114 C 376.602 58.464,375.600 57.378,375.600 56.648 C 375.600 56.314,375.361 55.896,375.070 55.720 C 374.778 55.544,374.424 55.085,374.282 54.700 C 374.141 54.315,373.764 54.000,373.444 54.000 C 373.122 54.000,372.744 53.456,372.595 52.776 C 372.447 52.103,371.713 50.939,370.963 50.190 C 370.213 49.440,369.600 48.653,369.600 48.440 C 369.600 48.228,369.240 47.940,368.800 47.800 C 368.360 47.660,368.000 47.271,368.000 46.936 C 368.000 46.600,367.640 46.231,367.200 46.116 C 366.760 46.001,366.400 45.670,366.400 45.380 C 366.400 45.091,366.059 44.746,365.643 44.614 C 365.227 44.482,364.789 44.001,364.670 43.547 C 364.543 43.059,364.267 42.835,364.000 43.000 C 363.732 43.166,363.456 42.937,363.326 42.440 C 363.201 41.962,362.782 41.600,362.353 41.600 C 361.867 41.600,361.600 41.317,361.600 40.800 C 361.600 40.267,361.333 40.000,360.800 40.000 C 360.267 40.000,360.000 39.733,360.000 39.200 C 360.000 38.667,359.733 38.400,359.200 38.400 C 358.667 38.400,358.400 38.133,358.400 37.600 C 358.400 37.156,358.133 36.800,357.800 36.800 C 357.470 36.800,357.200 36.513,357.200 36.163 C 357.200 35.812,356.840 35.431,356.400 35.316 C 355.960 35.201,355.600 34.841,355.600 34.516 C 355.600 34.191,355.240 33.831,354.800 33.716 C 354.360 33.601,354.000 33.270,354.000 32.980 C 354.000 32.691,353.659 32.346,353.243 32.214 C 352.827 32.082,352.394 31.619,352.280 31.185 C 352.143 30.662,351.860 30.479,351.437 30.641 C 351.087 30.776,350.800 30.699,350.800 30.471 C 350.800 29.727,349.564 28.800,348.571 28.800 C 347.995 28.800,347.600 28.567,347.600 28.227 C 347.600 27.912,347.240 27.540,346.800 27.400 C 346.360 27.260,346.000 26.888,346.000 26.573 C 346.000 26.171,345.522 26.000,344.400 26.000 C 343.067 26.000,342.800 25.867,342.800 25.200 C 342.800 24.667,342.533 24.400,342.000 24.400 C 341.560 24.400,341.221 24.265,341.247 24.100 C 341.383 23.238,341.112 22.842,340.300 22.718 C 339.805 22.643,339.443 22.367,339.495 22.105 C 339.553 21.815,339.333 21.728,338.930 21.882 C 338.480 22.055,338.363 21.983,338.564 21.658 C 338.727 21.395,338.711 21.206,338.530 21.237 C 337.533 21.411,336.870 21.110,336.684 20.400 C 336.524 19.787,336.138 19.600,335.037 19.600 C 333.867 19.600,333.600 19.452,333.600 18.800 C 333.600 18.133,333.333 18.000,332.000 18.000 C 330.667 18.000,330.400 17.867,330.400 17.200 C 330.400 16.533,330.133 16.400,328.800 16.400 C 327.467 16.400,327.200 16.267,327.200 15.600 C 327.200 15.160,327.065 14.821,326.900 14.847 C 325.968 14.994,324.007 14.756,324.047 14.500 C 324.204 13.508,323.872 13.200,322.647 13.200 C 321.684 13.200,321.239 12.994,321.107 12.486 C 320.976 11.987,320.469 11.741,319.423 11.671 C 318.600 11.615,317.502 11.292,316.983 10.952 C 316.464 10.612,315.626 10.281,315.120 10.217 C 313.425 10.001,312.000 9.517,312.000 9.157 C 312.000 8.960,311.233 8.800,310.296 8.800 C 309.026 8.800,308.465 8.597,308.093 8.000 C 307.692 7.359,307.160 7.200,305.409 7.200 C 303.725 7.200,303.273 7.075,303.435 6.653 C 303.724 5.900,302.418 5.612,298.687 5.605 C 295.974 5.601,295.537 5.500,295.287 4.824 C 295.129 4.397,294.865 4.037,294.700 4.024 C 294.535 4.011,292.972 4.000,291.227 4.000 C 288.428 4.000,288.025 3.908,287.805 3.217 C 287.548 2.407,253.469 1.965,251.470 2.746 M392.400 168.756 C 392.400 168.951,392.040 169.536,391.599 170.056 C 390.903 170.877,390.833 170.896,391.061 170.200 C 391.490 168.896,392.400 167.914,392.400 168.756 M393.433 171.457 C 393.295 171.819,393.263 172.197,393.364 172.297 C 393.682 172.615,394.400 171.977,394.400 171.376 C 394.400 170.592,393.744 170.647,393.433 171.457 M391.753 176.621 C 391.889 176.977,391.822 177.137,391.595 176.997 C 391.378 176.863,391.200 177.044,391.200 177.400 C 391.200 177.802,391.010 177.940,390.700 177.765 C 390.304 177.542,390.302 177.593,390.691 178.012 C 391.095 178.448,391.323 178.412,391.991 177.809 C 392.962 176.930,393.047 176.000,392.157 176.000 C 391.741 176.000,391.598 176.218,391.753 176.621 M390.985 179.175 C 391.112 179.382,390.898 179.736,390.508 179.963 C 389.839 180.353,389.839 180.376,390.500 180.388 C 390.885 180.395,391.200 180.325,391.200 180.233 C 391.200 180.141,391.309 179.781,391.443 179.433 C 391.579 179.079,391.480 178.800,391.219 178.800 C 390.963 178.800,390.857 178.969,390.985 179.175 M390.537 181.380 C 390.683 181.759,390.567 181.885,390.202 181.745 C 389.828 181.602,389.665 181.801,389.706 182.352 C 389.764 183.114,389.819 183.126,390.484 182.524 C 391.281 181.802,391.440 180.800,390.757 180.800 C 390.514 180.800,390.414 181.061,390.537 181.380 M388.349 184.500 C 388.258 184.679,388.107 186.400,388.182 186.400 C 388.223 186.400,388.647 185.950,389.125 185.400 C 389.973 184.425,389.975 184.400,389.197 184.400 C 388.759 184.400,388.377 184.445,388.349 184.500 M386.298 189.067 C 386.043 190.020,385.691 190.800,385.517 190.800 C 385.343 190.800,385.200 191.188,385.200 191.662 C 385.200 192.504,385.219 192.507,386.014 191.787 C 386.462 191.382,386.742 190.826,386.636 190.551 C 386.531 190.276,386.795 189.606,387.222 189.062 C 388.161 187.869,388.210 187.333,387.381 187.333 C 386.988 187.333,386.591 187.968,386.298 189.067 M384.707 193.299 C 384.901 194.053,384.843 194.122,384.353 193.720 C 383.862 193.319,383.754 193.449,383.684 194.520 L 383.601 195.800 384.392 194.800 C 385.253 193.711,385.404 192.973,384.837 192.623 C 384.638 192.500,384.579 192.804,384.707 193.299 M382.500 197.065 C 381.963 197.281,381.799 198.400,382.304 198.400 C 382.471 198.400,382.832 198.040,383.107 197.600 C 383.603 196.805,383.459 196.678,382.500 197.065 M380.133 201.000 C 380.133 201.330,380.354 201.600,380.624 201.600 C 380.894 201.600,381.218 201.330,381.345 201.000 C 381.497 200.603,381.330 200.400,380.854 200.400 C 380.458 200.400,380.133 200.670,380.133 201.000 M379.469 202.511 C 379.597 202.719,379.454 203.047,379.151 203.239 C 378.774 203.478,378.753 203.590,379.086 203.594 C 379.353 203.597,379.748 203.270,379.964 202.867 C 380.258 202.318,380.216 202.133,379.796 202.133 C 379.488 202.133,379.340 202.303,379.469 202.511 M377.492 205.237 C 377.102 205.464,376.888 205.818,377.015 206.025 C 377.397 206.643,377.893 206.452,378.116 205.600 C 378.231 205.160,378.297 204.805,378.263 204.812 C 378.228 204.819,377.881 205.010,377.492 205.237 M365.489 221.100 C 363.585 223.145,363.230 223.600,363.533 223.600 C 363.716 223.600,364.445 222.880,365.152 222.000 C 366.465 220.366,366.662 219.839,365.489 221.100 M360.585 226.197 C 359.307 227.406,358.354 228.487,358.468 228.601 C 358.672 228.805,359.914 227.687,362.175 225.261 C 364.044 223.255,363.122 223.798,360.585 226.197 M357.388 228.722 C 357.175 228.875,356.943 229.270,356.873 229.600 C 356.772 230.081,356.886 230.063,357.450 229.510 C 358.158 228.814,358.110 228.205,357.388 228.722 M338.176 243.780 C 337.427 244.340,337.432 244.352,338.306 244.132 C 338.805 244.006,339.310 243.745,339.430 243.552 C 339.768 243.004,339.036 243.138,338.176 243.780 " stroke="none" fill="#e024c5" fill-rule="evenodd"></path><path id="path3" d="M149.605 78.391 C 149.260 79.036,149.294 79.139,149.788 78.949 C 150.122 78.821,150.305 78.570,150.195 78.392 C 150.085 78.214,150.221 77.977,150.498 77.866 C 150.874 77.714,150.878 77.655,150.514 77.632 C 150.247 77.614,149.838 77.956,149.605 78.391 M148.350 81.000 C 148.322 81.110,148.275 81.335,148.244 81.500 C 148.213 81.665,148.025 82.070,147.825 82.400 C 147.601 82.771,147.791 82.712,148.322 82.247 C 148.794 81.832,149.085 81.337,148.967 81.147 C 148.730 80.763,148.427 80.691,148.350 81.000 M270.499 202.232 L 270.600 263.000 277.600 263.030 C 282.011 263.048,284.813 262.900,285.177 262.630 C 285.604 262.311,285.679 262.323,285.468 262.677 C 285.207 263.110,285.709 263.148,287.700 262.846 C 287.865 262.821,288.000 262.530,288.000 262.200 C 288.000 261.635,291.084 261.329,294.261 261.579 C 294.734 261.616,295.379 261.279,295.694 260.829 C 296.192 260.119,296.727 260.005,299.782 259.962 C 302.871 259.919,303.322 259.821,303.495 259.157 C 303.639 258.608,304.093 258.381,305.147 258.332 C 307.949 258.200,308.199 258.146,308.108 257.699 C 307.987 257.106,309.388 256.679,310.400 257.000 C 310.905 257.160,311.200 257.072,311.200 256.760 C 311.200 256.489,311.317 256.384,311.460 256.527 C 311.604 256.670,311.977 256.475,312.290 256.094 C 312.603 255.712,312.745 255.625,312.606 255.900 C 312.467 256.175,312.524 256.400,312.734 256.400 C 312.943 256.400,313.220 256.126,313.348 255.790 C 313.512 255.363,313.884 255.256,314.591 255.434 C 315.150 255.574,315.600 255.514,315.600 255.299 C 315.600 255.085,316.095 254.978,316.700 255.061 C 317.585 255.182,317.647 255.145,317.019 254.872 C 316.216 254.523,318.236 253.785,319.501 253.964 C 319.776 254.003,320.444 253.592,320.985 253.051 C 321.631 252.405,322.250 252.140,322.785 252.280 C 323.339 252.425,323.600 252.300,323.600 251.889 C 323.600 251.236,324.413 250.800,325.633 250.800 C 326.055 250.800,326.403 250.575,326.406 250.300 C 326.410 249.967,326.542 250.000,326.800 250.400 C 327.114 250.885,327.189 250.828,327.194 250.100 C 327.200 249.213,327.313 249.136,328.700 249.064 C 329.085 249.044,329.691 248.706,330.047 248.314 C 330.403 247.921,331.123 247.597,331.647 247.594 C 333.098 247.585,333.974 246.914,333.200 246.406 C 332.751 246.111,332.983 246.011,334.124 246.006 C 334.962 246.003,335.548 245.839,335.426 245.642 C 335.304 245.445,335.464 245.184,335.782 245.062 C 336.187 244.907,336.285 245.034,336.112 245.486 C 335.947 245.916,336.020 246.035,336.332 245.842 C 336.589 245.683,336.800 245.322,336.800 245.040 C 336.800 244.440,340.559 242.292,340.941 242.674 C 341.083 242.817,341.200 242.677,341.200 242.363 C 341.200 242.049,341.579 241.556,342.042 241.267 C 342.739 240.831,342.836 240.832,342.607 241.270 C 342.455 241.562,342.702 241.350,343.156 240.800 C 343.611 240.250,343.987 239.980,343.993 240.200 C 343.998 240.420,344.346 240.037,344.766 239.349 C 345.368 238.361,345.737 238.137,346.516 238.286 C 347.212 238.419,347.679 238.223,348.102 237.619 C 348.431 237.149,349.533 236.236,350.550 235.591 C 351.568 234.945,352.400 234.136,352.400 233.791 C 352.400 233.417,352.681 233.212,353.100 233.282 C 353.570 233.361,353.803 233.137,353.809 232.600 C 353.816 232.048,354.046 231.839,354.550 231.927 C 354.987 232.003,355.174 231.882,355.017 231.627 C 354.871 231.392,354.943 231.200,355.176 231.200 C 355.409 231.200,355.600 230.911,355.600 230.557 C 355.600 230.137,355.818 229.998,356.229 230.156 C 356.898 230.413,358.623 229.689,358.244 229.311 C 358.120 229.187,357.775 229.289,357.476 229.537 C 357.060 229.882,356.933 229.848,356.933 229.394 C 356.933 228.889,357.360 228.604,357.700 228.882 C 357.755 228.927,358.850 227.922,360.132 226.650 C 361.415 225.377,362.990 224.153,363.632 223.929 C 364.275 223.705,364.800 223.323,364.800 223.081 C 364.800 222.781,364.646 222.794,364.320 223.120 C 364.056 223.384,363.696 223.600,363.520 223.600 C 363.344 223.600,363.560 223.240,364.000 222.800 C 364.440 222.360,364.800 221.839,364.800 221.643 C 364.800 221.446,365.095 221.172,365.457 221.034 C 366.010 220.821,366.032 220.879,365.600 221.401 C 365.317 221.741,365.187 222.120,365.311 222.244 C 365.434 222.367,365.736 222.093,365.982 221.634 C 366.227 221.175,366.325 220.800,366.200 220.800 C 366.075 220.800,366.164 220.442,366.398 220.004 C 366.632 219.566,367.044 219.251,367.312 219.304 C 367.580 219.357,367.750 219.098,367.689 218.729 C 367.617 218.293,367.896 218.013,368.489 217.929 C 369.069 217.847,369.380 217.545,369.344 217.100 C 369.314 216.715,369.506 216.400,369.772 216.400 C 370.038 216.400,370.648 215.949,371.128 215.397 C 372.102 214.277,372.255 213.804,371.500 214.245 C 371.225 214.406,371.495 214.033,372.100 213.415 C 372.705 212.797,373.200 212.105,373.200 211.879 C 373.200 211.652,373.316 211.582,373.457 211.724 C 373.598 211.865,373.486 212.255,373.208 212.590 C 372.897 212.965,372.865 213.200,373.124 213.200 C 373.630 213.200,374.194 211.679,374.052 210.700 C 373.961 210.077,374.405 209.811,375.300 209.953 C 375.465 209.979,375.579 209.865,375.553 209.700 C 375.417 208.843,375.671 208.399,376.300 208.394 C 376.898 208.389,376.913 208.331,376.400 208.000 C 375.871 207.658,376.094 207.438,376.863 207.540 C 377.008 207.560,377.077 207.125,377.017 206.573 C 376.946 205.928,377.170 205.430,377.644 205.176 C 378.251 204.852,378.336 204.902,378.123 205.456 C 377.948 205.912,378.016 206.037,378.332 205.842 C 378.589 205.683,378.800 205.016,378.800 204.359 C 378.800 203.470,378.968 203.195,379.459 203.282 C 379.821 203.347,380.194 203.130,380.289 202.800 C 380.425 202.324,380.384 202.310,380.086 202.734 C 379.783 203.165,379.663 203.142,379.460 202.613 C 379.322 202.253,379.351 202.046,379.524 202.153 C 379.697 202.260,380.100 202.182,380.419 201.980 C 380.739 201.778,380.805 201.609,380.567 201.606 C 380.328 201.603,380.133 201.330,380.133 201.000 C 380.133 200.670,380.474 200.400,380.890 200.400 C 381.380 200.400,381.547 200.577,381.365 200.900 C 381.155 201.272,381.206 201.286,381.566 200.956 C 381.831 200.711,382.059 199.772,382.071 198.868 C 382.087 197.697,382.286 197.163,382.762 197.012 C 383.352 196.825,383.586 196.006,383.707 193.700 C 383.736 193.142,384.200 193.456,384.200 194.033 C 384.200 194.235,384.335 194.400,384.500 194.400 C 384.665 194.400,384.886 194.400,384.990 194.400 C 385.095 194.400,385.012 193.959,384.807 193.419 C 384.514 192.647,384.552 192.483,384.988 192.651 C 385.391 192.806,385.480 192.626,385.313 191.991 C 385.188 191.511,385.255 191.002,385.462 190.859 C 385.669 190.717,386.059 189.846,386.328 188.925 C 386.718 187.590,386.977 187.280,387.604 187.401 C 388.283 187.532,388.377 187.352,388.295 186.076 C 388.213 184.806,388.329 184.582,389.120 184.470 C 389.933 184.354,390.014 184.176,389.815 182.925 C 389.635 181.792,389.706 181.555,390.175 181.735 C 390.567 181.885,390.686 181.769,390.537 181.380 C 390.399 181.022,390.560 180.800,390.957 180.800 C 391.668 180.800,391.836 179.793,391.191 179.395 C 390.942 179.241,391.067 178.880,391.510 178.471 C 391.910 178.102,391.997 177.963,391.702 178.163 C 391.357 178.397,390.994 178.340,390.683 178.004 C 390.304 177.595,390.308 177.544,390.700 177.765 C 391.010 177.940,391.200 177.802,391.200 177.400 C 391.200 177.044,391.378 176.863,391.595 176.997 C 391.822 177.137,391.889 176.977,391.753 176.621 C 391.590 176.198,391.751 175.998,392.257 175.994 C 392.711 175.990,392.827 175.873,392.556 175.694 C 391.352 174.897,390.756 172.852,391.598 172.401 C 393.606 171.326,392.465 170.998,387.200 171.138 C 383.438 171.238,382.000 171.148,382.000 170.812 C 382.000 169.731,379.803 170.570,379.673 171.700 C 379.445 173.686,377.600 173.241,377.600 171.200 C 377.600 169.886,377.462 169.600,376.828 169.600 C 376.345 169.600,375.991 169.263,375.882 168.700 C 375.787 168.205,375.684 168.565,375.654 169.500 L 375.600 171.200 373.462 171.200 C 371.833 171.200,371.152 171.010,370.601 170.401 C 369.681 169.385,368.800 169.995,368.800 171.649 C 368.800 172.533,368.615 172.800,368.000 172.800 C 367.421 172.800,367.200 172.533,367.200 171.833 C 367.200 169.980,366.818 169.600,364.957 169.600 C 363.467 169.600,363.200 169.721,363.200 170.400 C 363.200 171.646,360.524 171.554,360.282 170.300 C 360.125 169.483,360.104 169.496,360.054 170.438 C 359.971 172.031,358.723 173.009,358.083 171.984 C 357.332 170.782,350.800 170.796,350.800 172.000 C 350.800 172.667,350.533 172.800,349.200 172.800 C 347.867 172.800,347.600 172.667,347.600 172.000 C 347.600 171.297,347.333 171.200,345.400 171.200 L 343.200 171.200 343.146 169.500 C 343.116 168.565,343.013 168.205,342.918 168.700 C 342.778 169.425,342.477 169.600,341.372 169.600 C 340.267 169.600,340.000 169.755,340.000 170.400 C 340.000 171.147,339.733 171.200,336.000 171.200 C 332.267 171.200,332.000 171.147,332.000 170.400 C 332.000 169.698,331.733 169.600,329.828 169.600 C 327.893 169.600,327.637 169.502,327.482 168.700 C 327.387 168.205,327.284 168.925,327.254 170.300 L 327.200 172.800 325.800 172.800 C 324.667 172.800,324.400 172.648,324.400 172.000 C 324.400 171.467,324.133 171.200,323.600 171.200 C 323.067 171.200,322.800 170.933,322.800 170.400 C 322.800 169.867,322.533 169.600,322.000 169.600 C 321.467 169.600,321.200 169.867,321.200 170.400 C 321.200 171.067,320.933 171.200,319.600 171.200 C 318.720 171.200,318.000 171.020,318.000 170.800 C 318.000 170.580,317.280 170.400,316.400 170.400 C 315.520 170.400,314.800 170.220,314.800 170.000 C 314.800 169.780,314.440 169.600,314.000 169.600 C 313.467 169.600,313.200 169.867,313.200 170.400 C 313.200 171.154,312.933 171.200,308.600 171.200 C 304.267 171.200,304.000 171.154,304.000 170.400 C 304.000 169.733,303.733 169.600,302.400 169.600 C 301.067 169.600,300.800 169.733,300.800 170.400 C 300.800 171.706,294.935 171.610,294.682 170.300 C 294.514 169.425,294.507 169.424,294.454 170.260 C 294.410 170.959,294.082 171.160,292.700 171.334 C 291.765 171.452,290.415 171.670,289.700 171.820 L 288.400 172.091 288.400 170.045 C 288.400 168.267,288.296 168.000,287.600 168.000 C 286.933 168.000,286.800 168.267,286.800 169.600 L 286.800 171.200 281.200 171.200 L 275.600 171.200 275.600 172.138 C 275.600 173.200,274.470 174.400,273.469 174.400 C 273.067 174.400,272.800 174.081,272.800 173.600 C 272.800 173.088,272.533 172.800,272.058 172.800 C 271.063 172.800,270.925 170.766,270.820 154.602 C 270.775 147.563,270.661 141.728,270.567 141.634 C 270.474 141.541,270.443 168.810,270.499 202.232 M396.500 158.665 C 396.225 158.776,396.000 159.312,396.000 159.857 C 396.000 160.408,395.824 160.739,395.605 160.603 C 395.378 160.463,395.311 160.623,395.447 160.979 C 395.753 161.775,395.980 161.761,396.686 160.900 C 397.001 160.515,397.153 160.413,397.023 160.672 C 396.893 160.932,396.932 161.234,397.109 161.344 C 397.286 161.453,397.466 161.114,397.509 160.591 C 397.552 160.068,397.408 159.528,397.187 159.392 C 396.967 159.256,396.891 158.977,397.017 158.772 C 397.267 158.369,397.245 158.364,396.500 158.665 M395.002 164.398 C 394.603 164.839,394.407 165.200,394.567 165.200 C 394.988 165.200,396.128 163.995,395.912 163.779 C 395.811 163.678,395.402 163.956,395.002 164.398 M391.711 168.900 C 390.844 170.021,390.742 171.066,391.599 170.056 C 392.040 169.536,392.400 168.951,392.400 168.756 C 392.400 168.262,392.167 168.311,391.711 168.900 M392.994 171.219 C 392.680 172.210,393.533 173.427,394.126 172.834 C 394.393 172.567,394.347 172.218,393.989 171.786 C 393.537 171.242,393.543 171.081,394.026 170.776 C 394.502 170.474,394.486 170.411,393.927 170.406 C 393.557 170.403,393.137 170.769,392.994 171.219 " stroke="none" fill="#d424de" fill-rule="evenodd"></path><path id="path4" d="M133.814 130.777 C 133.682 130.991,133.279 131.052,132.918 130.913 C 132.436 130.728,132.325 130.829,132.503 131.291 C 132.758 131.957,131.887 132.047,131.312 131.414 C 131.140 131.226,131.253 131.218,131.562 131.398 C 131.943 131.619,132.030 131.573,131.834 131.255 C 131.675 130.998,131.374 130.892,131.166 131.021 C 130.957 131.150,130.891 131.423,131.017 131.628 C 131.154 131.849,129.244 132.026,126.324 132.063 C 123.616 132.097,120.860 132.170,120.200 132.223 C 119.540 132.277,118.764 132.338,118.476 132.360 C 118.188 132.382,118.056 132.568,118.183 132.772 C 118.552 133.369,117.985 133.514,114.800 133.637 C 111.315 133.771,110.686 133.925,110.939 134.585 C 111.147 135.127,111.299 135.103,107.100 135.209 C 104.354 135.279,104.000 135.374,104.000 136.044 C 104.000 136.629,103.706 136.801,102.700 136.805 C 100.800 136.813,99.600 137.216,99.600 137.847 C 99.600 138.234,99.071 138.400,97.833 138.400 C 95.836 138.400,94.707 138.725,95.008 139.213 C 95.295 139.677,94.004 140.021,91.808 140.065 C 90.182 140.098,89.960 140.202,90.129 140.851 C 90.293 141.476,90.097 141.600,88.950 141.600 C 88.097 141.600,87.488 141.828,87.345 142.200 C 87.218 142.530,86.729 142.803,86.257 142.806 C 85.203 142.814,84.618 143.192,84.292 144.077 C 84.115 144.557,83.733 144.699,82.983 144.563 C 81.516 144.297,80.391 144.712,80.663 145.420 C 80.820 145.828,80.599 146.000,79.921 146.000 C 79.390 146.000,78.345 146.450,77.600 147.000 C 76.855 147.550,75.785 148.003,75.222 148.006 C 74.447 148.011,74.340 148.101,74.779 148.379 C 75.384 148.761,74.120 149.253,72.245 149.365 C 71.706 149.397,71.420 149.666,71.456 150.108 C 71.504 150.711,70.889 151.004,69.900 150.847 C 69.735 150.821,69.621 150.935,69.647 151.100 C 69.791 152.011,69.502 152.400,68.680 152.400 C 68.174 152.400,67.518 152.625,67.221 152.900 C 66.786 153.304,66.744 153.293,67.003 152.838 C 67.218 152.462,67.171 152.371,66.862 152.562 C 66.608 152.719,66.400 153.107,66.400 153.424 C 66.400 153.741,66.057 154.000,65.637 154.000 C 65.072 154.000,64.929 154.207,65.084 154.800 C 65.240 155.395,65.096 155.600,64.527 155.600 C 64.105 155.600,63.518 155.825,63.221 156.100 C 62.925 156.375,62.791 156.405,62.924 156.167 C 63.056 155.928,62.927 155.733,62.637 155.733 C 62.323 155.733,62.187 156.029,62.302 156.467 C 62.432 156.964,62.276 157.200,61.818 157.200 C 61.037 157.200,59.920 158.186,60.286 158.552 C 60.422 158.689,60.164 158.800,59.713 158.800 C 59.217 158.800,58.807 159.131,58.674 159.640 C 58.551 160.107,58.263 160.362,58.024 160.215 C 57.786 160.068,57.440 160.362,57.252 160.872 C 57.061 161.389,56.577 161.797,56.155 161.798 C 55.682 161.799,55.421 162.062,55.456 162.500 C 55.486 162.885,55.351 163.200,55.156 163.200 C 54.960 163.200,54.800 162.919,54.800 162.576 C 54.800 162.233,54.628 162.059,54.417 162.189 C 54.207 162.319,54.148 162.719,54.285 163.078 C 54.452 163.512,54.380 163.635,54.073 163.445 C 53.760 163.252,53.695 163.382,53.872 163.844 C 54.083 164.394,53.964 164.484,53.267 164.302 C 52.790 164.177,52.488 164.219,52.597 164.395 C 52.705 164.571,52.347 164.827,51.800 164.964 C 51.252 165.102,50.825 165.346,50.850 165.507 C 50.976 166.330,50.731 166.706,50.100 166.656 C 49.640 166.619,49.440 166.840,49.518 167.300 C 49.600 167.791,49.371 168.000,48.751 168.000 C 48.265 168.000,47.972 168.105,48.101 168.234 C 48.433 168.566,46.750 170.416,46.344 170.166 C 46.160 170.052,46.110 170.222,46.234 170.543 C 46.373 170.907,46.142 171.228,45.623 171.393 C 45.164 171.538,44.888 171.819,45.011 172.017 C 45.133 172.215,44.770 172.493,44.204 172.635 C 43.242 172.876,43.221 172.930,43.887 173.448 C 44.457 173.891,44.470 173.957,43.954 173.779 C 43.476 173.614,43.243 173.884,43.056 174.821 C 42.883 175.687,42.625 176.018,42.240 175.871 C 41.931 175.752,41.556 175.778,41.406 175.928 C 41.256 176.077,40.941 176.200,40.707 176.200 C 40.472 176.200,40.215 176.650,40.135 177.200 C 39.899 178.833,39.664 179.200,39.015 178.950 C 38.554 178.774,38.400 178.988,38.400 179.804 C 38.400 180.672,38.248 180.853,37.651 180.697 C 37.097 180.553,36.948 180.678,37.079 181.179 C 37.176 181.551,36.973 182.090,36.628 182.377 C 36.109 182.807,35.999 182.802,35.994 182.349 C 35.989 181.912,35.912 181.920,35.615 182.389 C 35.369 182.778,35.405 183.083,35.721 183.283 C 36.053 183.494,36.000 183.590,35.549 183.594 C 34.860 183.600,33.843 184.605,33.767 185.354 C 33.742 185.599,33.694 186.115,33.661 186.500 C 33.627 186.885,33.465 187.179,33.300 187.153 C 32.406 187.011,32.063 187.289,32.207 188.037 C 32.320 188.622,32.203 188.810,31.817 188.662 C 31.514 188.546,31.170 188.700,31.053 189.005 C 30.915 189.367,31.042 189.482,31.420 189.337 C 31.739 189.214,32.000 189.314,32.000 189.557 C 32.000 189.801,31.775 190.001,31.500 190.003 C 31.225 190.004,30.687 190.556,30.304 191.228 C 29.880 191.973,29.425 192.339,29.141 192.163 C 28.824 191.967,28.742 192.133,28.885 192.681 C 29.142 193.663,28.561 194.800,27.803 194.800 C 27.459 194.800,27.306 195.110,27.402 195.611 C 27.488 196.057,27.388 196.316,27.179 196.187 C 26.971 196.058,26.800 196.244,26.800 196.600 C 26.800 196.956,26.657 197.159,26.483 197.051 C 26.205 196.880,26.067 197.358,25.909 199.044 C 25.886 199.289,25.589 199.469,25.249 199.444 C 24.909 199.420,24.580 199.760,24.519 200.200 L 24.407 201.000 24.775 200.200 C 24.978 199.760,25.156 199.604,25.172 199.854 C 25.187 200.104,24.939 200.811,24.620 201.426 C 24.302 202.040,24.103 202.646,24.178 202.771 C 24.254 202.897,24.044 203.251,23.713 203.558 C 23.184 204.047,23.143 203.997,23.381 203.158 C 23.590 202.421,23.555 202.338,23.232 202.800 C 23.001 203.130,22.809 203.873,22.806 204.451 C 22.803 205.029,22.529 205.727,22.198 206.001 C 21.868 206.276,21.447 207.063,21.265 207.750 C 21.057 208.532,20.708 208.962,20.333 208.898 C 20.003 208.842,19.733 209.059,19.733 209.380 C 19.733 209.702,19.901 209.861,20.107 209.734 C 20.312 209.607,20.276 209.885,20.026 210.352 C 19.776 210.818,19.690 211.200,19.835 211.200 C 19.980 211.200,19.880 211.462,19.615 211.782 C 19.349 212.103,19.232 212.529,19.356 212.729 C 19.480 212.929,19.225 213.415,18.791 213.809 C 18.356 214.202,18.000 214.946,18.000 215.462 C 18.000 215.978,17.820 216.400,17.600 216.400 C 17.380 216.400,17.245 216.625,17.300 216.900 C 17.355 217.175,17.175 217.355,16.900 217.300 C 16.625 217.245,16.400 217.380,16.400 217.600 C 16.400 217.820,16.561 218.000,16.758 218.000 C 16.955 218.000,16.984 218.584,16.823 219.300 C 16.386 221.234,16.278 221.413,15.633 221.264 C 15.151 221.154,15.134 221.239,15.544 221.732 C 15.949 222.220,15.934 222.399,15.464 222.668 C 15.094 222.880,14.905 223.570,14.942 224.579 C 14.990 225.889,14.830 226.245,14.000 226.673 C 13.264 227.052,13.185 227.190,13.700 227.194 C 14.085 227.197,14.400 227.391,14.400 227.624 C 14.400 227.857,14.189 227.917,13.932 227.758 C 13.617 227.564,13.548 227.687,13.719 228.134 C 13.860 228.500,13.846 228.800,13.687 228.800 C 13.529 228.800,13.373 229.565,13.340 230.500 C 13.307 231.435,13.186 232.560,13.071 233.000 C 12.956 233.440,12.847 233.946,12.831 234.124 C 12.814 234.302,12.639 234.348,12.443 234.226 C 11.835 233.851,11.521 236.021,12.083 236.715 C 12.468 237.191,12.473 237.278,12.102 237.055 C 11.734 236.834,11.616 237.203,11.649 238.478 C 11.713 240.968,11.672 241.122,10.900 241.324 C 10.233 241.498,10.233 241.509,10.900 241.554 C 11.768 241.611,11.795 242.148,10.971 242.971 C 10.626 243.317,10.482 243.600,10.651 243.600 C 10.821 243.600,10.744 243.816,10.480 244.080 C 9.900 244.660,9.837 248.252,10.401 248.601 C 10.647 248.753,10.665 249.110,10.448 249.524 C 10.063 250.257,9.985 273.256,10.368 273.021 C 10.495 272.942,10.638 273.400,10.684 274.039 C 10.730 274.678,10.595 275.200,10.384 275.200 C 10.173 275.200,10.000 275.950,10.000 276.867 C 10.000 278.788,10.433 278.726,10.488 276.797 C 10.524 275.529,10.531 275.524,11.027 276.451 C 11.304 276.967,11.445 277.527,11.341 277.695 C 11.238 277.863,11.343 278.000,11.576 278.000 C 11.809 278.000,12.000 278.191,12.000 278.424 C 12.000 278.657,11.775 278.718,11.500 278.559 C 11.225 278.401,11.124 278.409,11.274 278.577 C 11.425 278.745,11.386 279.312,11.186 279.837 C 10.929 280.512,10.959 280.764,11.287 280.696 C 11.542 280.643,11.868 281.275,12.012 282.100 C 12.156 282.925,12.122 283.600,11.937 283.600 C 11.752 283.600,11.600 283.780,11.600 284.000 C 11.600 284.220,11.881 284.400,12.224 284.400 C 12.567 284.400,12.734 284.583,12.596 284.807 C 12.458 285.030,12.177 285.109,11.972 284.983 C 11.768 284.856,11.603 285.168,11.606 285.676 C 11.611 286.419,11.688 286.483,12.000 286.000 C 12.270 285.582,12.405 285.552,12.444 285.900 C 12.594 287.235,12.670 287.393,13.118 287.300 C 13.417 287.238,13.600 287.702,13.600 288.520 C 13.600 289.246,13.825 290.082,14.100 290.379 C 14.501 290.811,14.499 290.860,14.089 290.628 C 13.701 290.409,13.634 290.660,13.810 291.670 C 13.938 292.401,14.211 293.060,14.418 293.132 C 14.648 293.213,14.639 293.553,14.396 294.008 C 14.119 294.525,14.139 294.838,14.461 295.038 C 14.771 295.230,14.818 295.139,14.603 294.762 C 14.339 294.299,14.381 294.291,14.838 294.717 C 15.268 295.117,15.282 295.302,14.903 295.536 C 14.215 295.962,15.417 297.645,16.195 297.347 C 16.605 297.189,16.722 297.365,16.607 297.963 C 16.518 298.423,16.616 298.800,16.823 298.800 C 17.030 298.800,17.179 298.935,17.153 299.100 C 17.023 299.924,17.247 300.418,17.640 300.175 C 17.931 299.995,17.918 300.207,17.600 300.800 C 17.336 301.293,17.298 301.587,17.515 301.453 C 17.732 301.319,18.132 301.477,18.404 301.804 C 18.676 302.132,19.127 302.400,19.406 302.400 C 19.992 302.400,20.510 303.498,20.178 304.036 C 20.054 304.236,20.203 304.400,20.510 304.400 C 20.816 304.400,21.086 304.625,21.110 304.900 C 21.202 305.962,21.457 306.789,21.786 307.088 C 21.975 307.260,21.980 307.145,21.799 306.832 C 21.553 306.409,21.639 306.329,22.134 306.519 C 22.676 306.727,22.800 306.517,22.800 305.387 C 22.800 302.977,25.577 303.281,25.654 305.700 C 25.684 306.635,25.787 306.995,25.882 306.500 C 25.991 305.937,26.345 305.600,26.828 305.600 C 27.371 305.600,27.600 305.322,27.600 304.662 C 27.600 303.600,28.730 302.400,29.731 302.400 C 30.245 302.400,30.400 302.772,30.400 304.000 C 30.400 305.846,31.933 306.337,32.893 304.800 C 33.168 304.360,33.799 304.000,34.296 304.000 C 34.933 304.000,35.200 303.764,35.200 303.200 C 35.200 302.533,35.467 302.400,36.800 302.400 L 38.400 302.400 38.400 304.000 L 38.400 305.600 40.800 305.600 C 42.933 305.600,43.200 305.511,43.200 304.800 C 43.200 303.516,53.301 303.580,54.678 304.873 L 55.607 305.746 56.266 304.068 C 57.012 302.170,58.341 302.591,58.454 304.762 C 58.504 305.704,58.525 305.717,58.682 304.900 C 58.844 304.063,59.064 304.000,61.828 304.000 C 64.533 304.000,64.800 303.928,64.800 303.200 C 64.800 302.539,65.067 302.400,66.330 302.400 C 67.975 302.400,69.600 303.655,69.600 304.926 C 69.600 305.333,69.916 305.600,70.400 305.600 C 71.067 305.600,71.200 305.333,71.200 304.000 C 71.200 302.154,72.143 301.811,73.400 303.200 C 73.880 303.731,74.632 304.000,75.634 304.000 C 76.882 304.000,77.174 304.156,77.318 304.900 L 77.491 305.800 77.546 304.900 C 77.592 304.132,77.826 304.000,79.138 304.000 C 80.168 304.000,80.915 303.736,81.400 303.200 C 82.378 302.119,84.822 302.119,85.800 303.200 C 86.406 303.869,87.032 304.000,89.634 304.000 C 92.542 304.000,92.756 304.059,92.918 304.900 L 93.091 305.800 93.146 304.900 C 93.224 303.602,97.600 303.503,97.600 304.800 C 97.600 305.467,97.867 305.600,99.200 305.600 C 100.533 305.600,100.800 305.467,100.800 304.800 C 100.800 304.267,101.067 304.000,101.600 304.000 C 102.133 304.000,102.400 303.733,102.400 303.200 C 102.400 302.471,102.667 302.400,105.400 302.400 C 108.133 302.400,108.400 302.471,108.400 303.200 C 108.400 303.724,108.667 304.000,109.172 304.000 C 109.655 304.000,110.009 304.337,110.118 304.900 L 110.291 305.800 110.346 304.900 C 110.391 304.148,110.631 304.000,111.800 304.000 C 112.570 304.000,113.200 303.820,113.200 303.600 C 113.200 303.380,113.920 303.200,114.800 303.200 C 115.680 303.200,116.400 303.380,116.400 303.600 C 116.400 304.310,118.254 304.025,119.000 303.200 C 119.599 302.538,120.232 302.400,122.662 302.400 L 125.600 302.400 125.600 304.000 C 125.600 305.156,125.433 305.600,125.000 305.600 C 124.667 305.600,124.400 305.956,124.400 306.400 C 124.400 306.933,124.667 307.200,125.200 307.200 C 125.733 307.200,126.000 306.933,126.000 306.400 C 126.000 305.867,126.267 305.600,126.800 305.600 C 127.467 305.600,127.600 305.333,127.600 304.000 L 127.600 302.400 130.600 302.400 L 133.600 302.400 133.600 304.000 C 133.600 305.333,133.733 305.600,134.400 305.600 C 134.908 305.600,135.200 305.333,135.200 304.870 C 135.200 303.972,136.808 302.400,137.726 302.400 C 138.133 302.400,138.400 302.716,138.400 303.200 C 138.400 304.253,139.649 304.251,140.603 303.197 C 141.513 302.191,142.765 303.061,142.854 304.762 C 142.904 305.704,142.925 305.717,143.082 304.900 C 143.250 304.027,143.399 304.000,147.966 304.000 C 152.168 304.000,152.754 303.914,153.400 303.200 C 154.657 301.811,155.600 302.154,155.600 304.000 L 155.600 305.600 157.772 305.600 C 159.707 305.600,159.963 305.698,160.118 306.500 C 160.213 306.995,160.316 306.275,160.346 304.900 L 160.400 302.400 161.800 302.400 C 162.933 302.400,163.200 302.552,163.200 303.200 C 163.200 303.733,163.467 304.000,164.000 304.000 C 164.533 304.000,164.800 304.267,164.800 304.800 C 164.800 305.333,165.067 305.600,165.600 305.600 C 166.133 305.600,166.400 305.333,166.400 304.800 C 166.400 304.267,166.667 304.000,167.200 304.000 C 167.733 304.000,168.000 303.733,168.000 303.200 C 168.000 302.692,168.267 302.400,168.730 302.400 C 169.628 302.400,171.200 304.008,171.200 304.926 C 171.200 305.333,171.516 305.600,172.000 305.600 C 172.533 305.600,172.800 305.333,172.800 304.800 C 172.800 304.352,173.067 304.000,173.406 304.000 C 174.376 304.000,177.200 304.966,177.200 305.297 C 177.200 305.464,177.547 305.600,177.972 305.600 C 178.455 305.600,178.809 305.937,178.918 306.500 L 179.091 307.400 179.146 306.500 C 179.176 305.991,179.461 305.600,179.800 305.600 C 180.130 305.600,180.400 305.271,180.400 304.870 C 180.400 303.972,182.008 302.400,182.926 302.400 C 183.446 302.400,183.600 302.766,183.600 304.000 C 183.600 305.333,183.733 305.600,184.400 305.600 C 184.933 305.600,185.200 305.333,185.200 304.800 C 185.200 304.133,185.467 304.000,186.800 304.000 C 188.133 304.000,188.400 304.133,188.400 304.800 C 188.400 305.333,188.667 305.600,189.200 305.600 C 189.733 305.600,190.000 305.333,190.000 304.800 C 190.000 304.139,190.267 304.000,191.538 304.000 C 192.568 304.000,193.315 303.736,193.800 303.200 C 194.554 302.367,196.000 302.104,196.000 302.800 C 196.000 303.020,196.720 303.200,197.600 303.200 C 198.480 303.200,199.200 303.380,199.200 303.600 C 199.200 303.833,200.533 304.000,202.400 304.000 C 205.333 304.000,205.600 304.067,205.600 304.800 C 205.600 305.333,205.867 305.600,206.400 305.600 C 206.933 305.600,207.200 305.333,207.200 304.800 C 207.200 304.289,207.467 304.000,207.938 304.000 C 208.344 304.000,209.002 303.640,209.400 303.200 C 210.863 301.583,211.594 302.134,211.654 304.900 C 211.684 306.275,211.787 306.995,211.882 306.500 C 211.978 306.005,212.313 305.600,212.628 305.600 C 213.029 305.600,213.200 305.121,213.200 304.000 L 213.200 302.400 214.836 302.400 C 216.049 302.400,216.660 302.632,217.202 303.300 L 217.932 304.200 218.892 303.300 C 220.095 302.172,221.200 302.124,221.200 303.200 C 221.200 303.867,221.467 304.000,222.800 304.000 C 224.133 304.000,224.400 304.133,224.400 304.800 C 224.400 305.333,224.667 305.600,225.200 305.600 C 225.773 305.600,226.000 305.333,226.000 304.662 C 226.000 302.779,228.585 301.572,228.918 303.300 L 229.091 304.200 229.146 303.300 C 229.195 302.482,229.401 302.400,231.400 302.400 L 233.600 302.400 233.600 304.000 C 233.600 305.846,234.543 306.189,235.800 304.800 C 236.198 304.360,236.946 304.000,237.462 304.000 C 238.133 304.000,238.400 304.227,238.400 304.800 C 238.400 305.333,238.667 305.600,239.200 305.600 C 239.733 305.600,240.000 305.333,240.000 304.800 C 240.000 304.098,240.267 304.000,242.177 304.000 L 244.354 304.000 244.507 305.700 L 244.660 307.400 244.730 305.700 L 244.800 304.000 248.600 304.000 C 252.133 304.000,252.400 303.944,252.400 303.200 C 252.400 302.533,252.667 302.400,254.000 302.400 C 255.333 302.400,255.600 302.533,255.600 303.200 C 255.600 303.852,255.877 304.005,257.100 304.030 C 257.925 304.046,259.005 304.135,259.500 304.227 C 260.152 304.349,260.402 304.203,260.406 303.697 C 260.411 303.118,260.475 303.099,260.780 303.581 C 260.982 303.900,261.077 304.275,260.991 304.414 C 260.905 304.553,261.094 304.667,261.411 304.667 C 261.780 304.667,261.858 304.511,261.627 304.232 C 261.405 303.965,261.484 303.499,261.833 303.022 C 262.239 302.467,262.404 302.410,262.413 302.824 C 262.422 303.256,262.563 303.218,262.977 302.672 C 263.472 302.020,263.566 302.010,263.885 302.580 C 264.149 303.051,264.251 302.846,264.281 301.792 C 264.312 300.705,264.205 300.464,263.828 300.777 C 262.794 301.635,263.460 299.590,264.603 298.397 C 265.236 297.736,265.792 296.972,265.838 296.698 C 265.885 296.424,266.049 295.885,266.204 295.500 C 266.359 295.115,266.310 294.800,266.095 294.800 C 265.457 294.800,265.939 292.338,266.699 291.715 C 267.084 291.399,267.175 291.255,266.900 291.394 C 266.625 291.533,266.400 291.451,266.400 291.211 C 266.400 290.971,266.666 290.673,266.991 290.548 C 267.427 290.381,267.549 289.799,267.459 288.321 C 267.389 287.174,267.535 286.122,267.801 285.856 C 268.056 285.601,268.190 285.169,268.099 284.896 C 268.008 284.623,268.128 284.400,268.367 284.400 C 268.605 284.400,268.797 284.085,268.794 283.700 C 268.789 283.102,268.731 283.087,268.400 283.600 C 268.129 284.020,268.010 284.046,268.006 283.687 C 268.003 283.406,268.280 283.067,268.623 282.936 C 268.966 282.804,269.151 282.450,269.036 282.148 C 268.920 281.847,268.960 281.600,269.124 281.600 C 269.288 281.600,269.418 279.603,269.411 277.162 C 269.399 272.475,269.567 271.685,270.455 272.233 C 270.803 272.448,270.742 272.174,270.286 271.477 C 269.738 270.639,269.692 270.340,270.086 270.188 C 270.437 270.054,270.600 269.104,270.600 267.196 C 270.600 265.659,270.735 264.401,270.900 264.401 C 271.509 264.399,271.177 263.166,270.500 262.917 C 268.849 262.308,266.217 259.865,252.296 246.022 C 244.209 237.980,237.320 231.400,236.988 231.400 C 236.656 231.400,221.663 246.115,203.671 264.100 C 185.678 282.085,170.658 296.800,170.292 296.800 C 169.398 296.800,105.200 232.590,105.200 231.696 C 105.200 231.304,119.430 216.779,137.624 198.599 C 155.458 180.780,170.237 165.862,170.466 165.448 C 170.830 164.793,168.888 162.691,155.317 149.048 C 146.756 140.442,139.427 132.763,139.030 131.984 C 138.293 130.538,134.504 129.661,133.814 130.777 M15.713 296.300 C 15.474 296.936,15.521 296.945,16.225 296.400 C 16.946 295.842,16.961 295.850,16.437 296.517 C 15.842 297.275,14.882 296.838,15.378 296.035 C 15.796 295.358,16.004 295.523,15.713 296.300 M35.200 306.400 C 35.200 306.933,35.467 307.200,36.000 307.200 C 36.533 307.200,36.800 306.933,36.800 306.400 C 36.800 305.867,36.533 305.600,36.000 305.600 C 35.467 305.600,35.200 305.867,35.200 306.400 M261.369 306.349 C 261.534 306.616,261.459 307.088,261.203 307.397 C 260.816 307.862,260.929 307.924,261.859 307.755 C 263.303 307.493,263.295 307.530,262.095 306.632 C 261.530 306.209,261.203 306.082,261.369 306.349 " stroke="none" fill="#0ccfa0" fill-rule="evenodd"></path></g></svg>